<svg width="387" height="263" viewBox="0 0 387 263" fill="none" xmlns="http://www.w3.org/2000/svg">
<path opacity="0.0946098" d="M198.999 -4.14567L168.783 136.116C166.911 144.806 169.825 153.868 176.42 159.835L282.955 256.155C289.58 262.129 298.882 264.133 307.349 261.41L444.093 217.498C452.567 214.746 458.948 207.717 460.819 199.028L491.035 58.766C492.907 50.0765 489.993 41.0143 483.398 35.0471L376.863 -61.2729C370.268 -67.2401 360.966 -69.2439 352.469 -66.528L215.725 -22.6161C207.258 -19.8937 200.871 -12.8353 198.999 -4.14567Z" fill="url(#paint0_linear_0_1)"/>
<path opacity="0.0946098" d="M15.7664 32.5734L1.11361 100.592C0.203456 104.817 1.61466 109.197 4.82338 112.083L56.4864 158.8C59.6951 161.686 64.1959 162.656 68.3083 161.347L134.624 140.045C138.737 138.736 141.833 135.296 142.736 131.101L157.389 63.0824C158.299 58.8574 156.888 54.4773 153.679 51.5913L102.016 4.87432C98.8075 1.98826 94.3068 1.01869 90.1943 2.32759L23.8785 23.6291C19.7961 24.9444 16.6701 28.3785 15.7664 32.5734Z" fill="url(#paint1_linear_0_1)"/>
<path opacity="0.0946098" d="M109.396 180.639L102.45 212.88C102.018 214.888 102.704 216.948 104.195 218.335L128.687 240.48C130.214 241.844 132.344 242.303 134.297 241.689L165.735 231.593C167.688 230.979 169.138 229.347 169.571 227.34L176.516 195.098C176.949 193.091 176.262 191.03 174.772 189.643L150.28 167.498C148.753 166.134 146.622 165.675 144.669 166.289L113.232 176.386C111.302 177.036 109.828 178.631 109.396 180.639Z" fill="url(#paint2_linear_0_1)"/>
<defs>
<linearGradient id="paint0_linear_0_1" x1="294.457" y1="262.039" x2="365.376" y2="-67.1699" gradientUnits="userSpaceOnUse">
<stop stop-color="#D4145A"/>
<stop offset="1" stop-color="#2E3192"/>
</linearGradient>
<linearGradient id="paint1_linear_0_1" x1="62.0751" y1="161.707" x2="96.4754" y2="2.02017" gradientUnits="userSpaceOnUse">
<stop stop-color="#D4145A"/>
<stop offset="1" stop-color="#2E3192"/>
</linearGradient>
<linearGradient id="paint2_linear_0_1" x1="131.342" y1="241.836" x2="147.647" y2="166.151" gradientUnits="userSpaceOnUse">
<stop stop-color="#D4145A"/>
<stop offset="1" stop-color="#2E3192"/>
</linearGradient>
</defs>
</svg>
