<svg width="350" height="281" viewBox="0 0 350 281" fill="none" xmlns="http://www.w3.org/2000/svg">
<path opacity="0.0946098" d="M129.646 285.268L195.135 157.606C199.192 149.697 198.722 140.189 193.896 132.718L115.921 12.1073C111.068 4.62242 102.602 0.279534 93.7184 0.717692L-49.7314 7.74132C-58.6287 8.20675 -66.6111 13.3443 -70.6682 21.2533L-136.157 148.915C-140.214 156.824 -139.744 166.332 -134.918 173.803L-56.9432 294.414C-52.1171 301.885 -43.6512 306.228 -34.7406 305.804L108.709 298.78C117.593 298.342 125.589 293.177 129.646 285.268Z" fill="url(#paint0_linear_0_1)"/>
<path opacity="0.0946098" d="M316.138 297.224L347.896 235.316C349.869 231.471 349.64 226.874 347.287 223.256L309.476 164.76C307.123 161.142 303.027 159.04 298.716 159.24L229.146 162.652C224.835 162.852 220.954 165.374 218.996 169.192L187.238 231.1C185.265 234.946 185.495 239.542 187.847 243.16L225.658 301.656C228.011 305.275 232.107 307.376 236.418 307.176L305.988 303.764C310.272 303.55 314.18 301.042 316.138 297.224Z" fill="url(#paint1_linear_0_1)"/>
<path opacity="0.0946098" d="M264.022 129.971L279.075 100.626C280.013 98.7984 279.883 96.6304 278.802 94.9046L260.876 67.1754C259.754 65.4629 257.815 64.4682 255.769 64.5557L222.79 66.1715C220.745 66.259 218.921 67.4595 217.984 69.2868L202.93 98.6319C201.993 100.459 202.123 102.627 203.204 104.353L221.129 132.082C222.252 133.795 224.191 134.789 226.236 134.702L259.215 133.086C261.248 132.957 263.084 131.798 264.022 129.971Z" fill="url(#paint2_linear_0_1)"/>
<defs>
<linearGradient id="paint0_linear_0_1" x1="106.334" y1="3.4473" x2="-47.3744" y2="303.083" gradientUnits="userSpaceOnUse">
<stop stop-color="#D4145A"/>
<stop offset="1" stop-color="#2E3192"/>
</linearGradient>
<linearGradient id="paint1_linear_0_1" x1="304.83" y1="160.506" x2="230.272" y2="305.847" gradientUnits="userSpaceOnUse">
<stop stop-color="#D4145A"/>
<stop offset="1" stop-color="#2E3192"/>
</linearGradient>
<linearGradient id="paint2_linear_0_1" x1="258.662" y1="65.1782" x2="223.324" y2="134.064" gradientUnits="userSpaceOnUse">
<stop stop-color="#D4145A"/>
<stop offset="1" stop-color="#2E3192"/>
</linearGradient>
</defs>
</svg>
